HIERARCHY
ROOT Hips
{
	OFFSET 0.000000 87.230942 0.000000
	CHANNELS 6 Xposition Yposition Zposition Xrotation Yrotation Zrotation
	JOINT Pelvis
	{
		OFFSET 0.000000 0.000000 0.000000
		CHANNELS 3 Xrotation Yrotation Zrotation
		JOINT LeftUpLeg
		{
			OFFSET 12.017000 -9.376404 -2.439400
			CHANNELS 3 Xrotation Yrotation Zrotation
			JOINT LeftLeg
			{
				OFFSET -0.007312 -32.846973 2.110600
				CHANNELS 3 Xrotation Yrotation Zrotation
				JOINT LeftFoot
				{
					OFFSET 0.007312 -32.065170 -0.570400
					CHANNELS 3 Xrotation Yrotation Zrotation
					JOINT LeftToeBase
					{
						OFFSET 0.728300 -11.045900 13.180700
						CHANNELS 3 Xrotation Yrotation Zrotation
						End Site
						{
							OFFSET 0.000000 17.212589 0.000000
						}
					}
				}
				JOINT LeftPantLeg
				{
					OFFSET 0.002788 -16.709013 -3.143600
					CHANNELS 3 Xrotation Yrotation Zrotation
					End Site
					{
						OFFSET -0.605125 24.528742 0.000000
					}
				}
			}
			JOINT Left_Butt
			{
				OFFSET -6.630234 1.326584 -3.183700
				CHANNELS 3 Xrotation Yrotation Zrotation
				End Site
				{
					OFFSET -0.498041 20.188049 0.000000
				}
			}
		}
		JOINT RightUpLeg
		{
			OFFSET -11.717000 -9.376404 -2.439400
			CHANNELS 3 Xrotation Yrotation Zrotation
			JOINT RightLeg
			{
				OFFSET -0.003241 -32.846912 2.110600
				CHANNELS 3 Xrotation Yrotation Zrotation
				JOINT RightFoot
				{
					OFFSET 0.003241 -32.065136 -0.570500
					CHANNELS 3 Xrotation Yrotation Zrotation
					JOINT RightToeBase
					{
						OFFSET -0.728300 -11.045901 13.180700
						CHANNELS 3 Xrotation Yrotation Zrotation
						End Site
						{
							OFFSET 0.000000 17.212593 0.000000
						}
					}
				}
				JOINT RightPantLeg
				{
					OFFSET 0.008142 -16.708982 -3.143700
					CHANNELS 3 Xrotation Yrotation Zrotation
					End Site
					{
						OFFSET 0.605088 24.528715 0.000000
					}
				}
			}
			JOINT Right_Butt
			{
				OFFSET 6.630732 1.326584 -3.183700
				CHANNELS 3 Xrotation Yrotation Zrotation
				End Site
				{
					OFFSET 0.498015 20.188240 0.000000
				}
			}
		}
	}
	JOINT Spine
	{
		OFFSET -0.062400 7.848404 3.918300
		CHANNELS 3 Xrotation Yrotation Zrotation
		JOINT Spine1
		{
			OFFSET -0.072800 11.422302 0.713400
			CHANNELS 3 Xrotation Yrotation Zrotation
			JOINT Spine2
			{
				OFFSET -0.083200 13.054001 -1.931600
				CHANNELS 3 Xrotation Yrotation Zrotation
				JOINT Neck
				{
					OFFSET -0.092200 14.121796 -5.138800
					CHANNELS 3 Xrotation Yrotation Zrotation
					JOINT Head
					{
						OFFSET 0.000200 10.447403 -0.842000
						CHANNELS 3 Xrotation Yrotation Zrotation
						JOINT Visor
						{
							OFFSET 0.457100 25.671204 16.550400
							CHANNELS 3 Xrotation Yrotation Zrotation
							End Site
							{
								OFFSET 0.000000 26.061493 0.000000
							}
						}
						JOINT HairMidA
						{
							OFFSET 0.459400 31.585403 8.437400
							CHANNELS 3 Xrotation Yrotation Zrotation
							End Site
							{
								OFFSET 0.000000 26.061493 0.000000
							}
						}
						JOINT HairMidB
						{
							OFFSET 0.464000 33.309204 -8.389700
							CHANNELS 3 Xrotation Yrotation Zrotation
							End Site
							{
								OFFSET 0.000000 26.061493 0.000000
							}
						}
						JOINT HairMidC
						{
							OFFSET 0.466600 27.991196 -17.375099
							CHANNELS 3 Xrotation Yrotation Zrotation
							End Site
							{
								OFFSET 0.000000 26.061493 0.000000
							}
						}
						JOINT HairMidD
						{
							OFFSET 0.467700 17.888092 -21.169500
							CHANNELS 3 Xrotation Yrotation Zrotation
							End Site
							{
								OFFSET 0.000000 26.061493 0.000000
							}
						}
						JOINT HairMidE
						{
							OFFSET 5.325700 3.514603 -14.369699
							CHANNELS 3 Xrotation Yrotation Zrotation
							End Site
							{
								OFFSET 0.000000 26.061493 0.000000
							}
						}
						JOINT HairMidF
						{
							OFFSET -4.394100 3.514603 -14.372400
							CHANNELS 3 Xrotation Yrotation Zrotation
							End Site
							{
								OFFSET 0.000000 26.061493 0.000000
							}
						}
						JOINT HairLeftA
						{
							OFFSET 15.319900 25.746506 2.623300
							CHANNELS 3 Xrotation Yrotation Zrotation
							End Site
							{
								OFFSET 0.000000 26.061493 0.000000
							}
						}
						JOINT HairLeftB
						{
							OFFSET 12.619500 29.289398 -8.731499
							CHANNELS 3 Xrotation Yrotation Zrotation
							End Site
							{
								OFFSET 0.000000 26.061493 0.000000
							}
						}
						JOINT HairLeftC
						{
							OFFSET 15.714800 15.959900 2.909800
							CHANNELS 3 Xrotation Yrotation Zrotation
							End Site
							{
								OFFSET 0.000000 26.061493 0.000000
							}
						}
						JOINT HairLeftD
						{
							OFFSET 16.101700 18.437408 -7.553200
							CHANNELS 3 Xrotation Yrotation Zrotation
							End Site
							{
								OFFSET 0.000000 26.061493 0.000000
							}
						}
						JOINT HairLeftE
						{
							OFFSET 9.731900 17.915009 -18.316799
							CHANNELS 3 Xrotation Yrotation Zrotation
							End Site
							{
								OFFSET 0.000000 26.061493 0.000000
							}
						}
						JOINT HairLeftF
						{
							OFFSET 11.204300 4.953598 -9.668100
							CHANNELS 3 Xrotation Yrotation Zrotation
							End Site
							{
								OFFSET 0.000000 26.061493 0.000000
							}
						}
						JOINT HairRightA
						{
							OFFSET -14.397900 25.746307 2.615100
							CHANNELS 3 Xrotation Yrotation Zrotation
							End Site
							{
								OFFSET 0.000000 26.061493 0.000000
							}
						}
						JOINT HairRightB
						{
							OFFSET -11.691200 29.289200 -8.738199
							CHANNELS 3 Xrotation Yrotation Zrotation
							End Site
							{
								OFFSET 0.000000 26.061493 0.000000
							}
						}
						JOINT HairRightC
						{
							OFFSET -14.792900 15.959702 2.901400
							CHANNELS 3 Xrotation Yrotation Zrotation
							End Site
							{
								OFFSET 0.000000 26.061493 0.000000
							}
						}
						JOINT HairRightD
						{
							OFFSET -15.174000 18.437195 -7.561900
							CHANNELS 3 Xrotation Yrotation Zrotation
							End Site
							{
								OFFSET 0.000000 26.061493 0.000000
							}
						}
						JOINT HairRightE
						{
							OFFSET -8.798200 17.914902 -18.322001
							CHANNELS 3 Xrotation Yrotation Zrotation
							End Site
							{
								OFFSET 0.000000 26.061493 0.000000
							}
						}
						JOINT HairRightF
						{
							OFFSET -10.275200 4.953506 -9.674099
							CHANNELS 3 Xrotation Yrotation Zrotation
							End Site
							{
								OFFSET 0.000000 26.061493 0.000000
							}
						}
					}
				}
				JOINT LeftShoulder
				{
					OFFSET 5.133500 7.341202 -1.867600
					CHANNELS 3 Xrotation Yrotation Zrotation
					JOINT LeftArm
					{
						OFFSET 8.072663 0.936867 -2.176600
						CHANNELS 3 Xrotation Yrotation Zrotation
						JOINT LeftForeArm
						{
							OFFSET 31.271999 0.000000 0.000000
							CHANNELS 3 Xrotation Yrotation Zrotation
							JOINT LeftHand
							{
								OFFSET 31.771030 0.000000 0.000000
								CHANNELS 3 Xrotation Yrotation Zrotation
								JOINT LeftHandThumb1
								{
									OFFSET 2.886520 -2.557846 4.416640
									CHANNELS 3 Xrotation Yrotation Zrotation
									JOINT LeftHandThumb2
									{
										OFFSET 2.371025 -1.368912 1.368911
										CHANNELS 3 Xrotation Yrotation Zrotation
										JOINT LeftHandThumb3
										{
											OFFSET 2.243378 -1.295212 1.295213
											CHANNELS 3 Xrotation Yrotation Zrotation
											End Site
											{
												OFFSET -0.332611 2.876945 0.020015
											}
										}
									}
								}
								JOINT LeftHandIndex1
								{
									OFFSET 8.568985 -0.641945 3.119977
									CHANNELS 3 Xrotation Yrotation Zrotation
									JOINT LeftHandIndex2
									{
										OFFSET 3.348503 0.000000 0.000000
										CHANNELS 3 Xrotation Yrotation Zrotation
										JOINT LeftHandIndex3
										{
											OFFSET 3.314552 0.000000 0.000000
											CHANNELS 3 Xrotation Yrotation Zrotation
											End Site
											{
												OFFSET -1.032898 3.075485 0.678796
											}
										}
									}
								}
								JOINT LeftHandMiddle1
								{
									OFFSET 8.124603 0.000000 0.000000
									CHANNELS 3 Xrotation Yrotation Zrotation
									JOINT LeftHandMiddle2
									{
										OFFSET 4.166275 0.000000 0.000000
										CHANNELS 3 Xrotation Yrotation Zrotation
										JOINT LeftHandMiddle3
										{
											OFFSET 3.018135 0.000000 0.000000
											CHANNELS 3 Xrotation Yrotation Zrotation
											End Site
											{
												OFFSET -1.032700 2.767982 0.617226
											}
										}
									}
								}
								JOINT LeftHandRing1
								{
									OFFSET 8.571686 -0.031357 -2.884048
									CHANNELS 3 Xrotation Yrotation Zrotation
									JOINT LeftHandRing2
									{
										OFFSET 3.671181 0.000000 0.000000
										CHANNELS 3 Xrotation Yrotation Zrotation
										JOINT LeftHandRing3
										{
											OFFSET 2.728851 0.000000 0.000000
											CHANNELS 3 Xrotation Yrotation Zrotation
											End Site
											{
												OFFSET -0.815796 2.539223 0.577389
											}
										}
									}
								}
								JOINT LeftHandPinky1
								{
									OFFSET 7.854515 -0.675232 -5.213020
									CHANNELS 3 Xrotation Yrotation Zrotation
									JOINT LeftHandPinky2
									{
										OFFSET 3.068596 0.000000 0.000000
										CHANNELS 3 Xrotation Yrotation Zrotation
										JOINT LeftHandPinky3
										{
											OFFSET 2.396042 0.000000 0.000000
											CHANNELS 3 Xrotation Yrotation Zrotation
											End Site
											{
												OFFSET -0.524597 2.267998 0.567429
											}
										}
									}
								}
							}
							JOINT LeftSleeve
							{
								OFFSET 19.684509 -0.200119 0.476146
								CHANNELS 3 Xrotation Yrotation Zrotation
								End Site
								{
									OFFSET -0.031017 25.731133 -0.002868
								}
							}
						}
					}
				}
				JOINT RightShoulder
				{
					OFFSET -4.395900 7.341202 -1.870200
					CHANNELS 3 Xrotation Yrotation Zrotation
					JOINT RightArm
					{
						OFFSET -8.071453 0.936867 -2.181100
						CHANNELS 3 Xrotation Yrotation Zrotation
						JOINT RightForeArm
						{
							OFFSET -31.272011 0.000000 0.000000
							CHANNELS 3 Xrotation Yrotation Zrotation
							JOINT RightHand
							{
								OFFSET -31.771019 0.000000 0.000000
								CHANNELS 3 Xrotation Yrotation Zrotation
								JOINT RightHandThumb1
								{
									OFFSET -2.886520 -2.557808 4.416626
									CHANNELS 3 Xrotation Yrotation Zrotation
									JOINT RightHandThumb2
									{
										OFFSET -2.371056 -1.368927 1.368928
										CHANNELS 3 Xrotation Yrotation Zrotation
										JOINT RightHandThumb3
										{
											OFFSET -2.243362 -1.295204 1.295206
											CHANNELS 3 Xrotation Yrotation Zrotation
											End Site
											{
												OFFSET 0.332642 2.876938 0.020047
											}
										}
									}
								}
								JOINT RightHandIndex1
								{
									OFFSET -8.568993 -0.641953 3.120017
									CHANNELS 3 Xrotation Yrotation Zrotation
									JOINT RightHandIndex2
									{
										OFFSET -3.348518 0.000000 0.000000
										CHANNELS 3 Xrotation Yrotation Zrotation
										JOINT RightHandIndex3
										{
											OFFSET -3.314552 0.000000 0.000000
											CHANNELS 3 Xrotation Yrotation Zrotation
											End Site
											{
												OFFSET 1.032898 3.075478 0.678804
											}
										}
									}
								}
								JOINT RightHandMiddle1
								{
									OFFSET -8.124588 0.000000 0.000000
									CHANNELS 3 Xrotation Yrotation Zrotation
									JOINT RightHandMiddle2
									{
										OFFSET -4.166275 0.000000 0.000000
										CHANNELS 3 Xrotation Yrotation Zrotation
										JOINT RightHandMiddle3
										{
											OFFSET -3.018097 0.000000 0.000000
											CHANNELS 3 Xrotation Yrotation Zrotation
											End Site
											{
												OFFSET 1.032700 2.767937 0.617197
											}
										}
									}
								}
								JOINT RightHandRing1
								{
									OFFSET -8.571747 -0.031349 -2.884061
									CHANNELS 3 Xrotation Yrotation Zrotation
									JOINT RightHandRing2
									{
										OFFSET -3.671204 0.000000 0.000000
										CHANNELS 3 Xrotation Yrotation Zrotation
										JOINT RightHandRing3
										{
											OFFSET -2.728874 0.000000 0.000000
											CHANNELS 3 Xrotation Yrotation Zrotation
											End Site
											{
												OFFSET 0.815804 2.539261 0.577413
											}
										}
									}
								}
								JOINT RightHandPinky1
								{
									OFFSET -7.854561 -0.675247 -5.212970
									CHANNELS 3 Xrotation Yrotation Zrotation
									JOINT RightHandPinky2
									{
										OFFSET -3.068550 0.000000 0.000000
										CHANNELS 3 Xrotation Yrotation Zrotation
										JOINT RightHandPinky3
										{
											OFFSET -2.395981 0.000000 0.000000
											CHANNELS 3 Xrotation Yrotation Zrotation
											End Site
											{
												OFFSET 0.524605 2.267952 0.567413
											}
										}
									}
								}
							}
							JOINT RightSleeve
							{
								OFFSET -19.684753 -0.200165 0.476065
								CHANNELS 3 Xrotation Yrotation Zrotation
								End Site
								{
									OFFSET 0.031342 25.731255 -0.002917
								}
							}
						}
					}
				}
				JOINT Hood
				{
					OFFSET 0.369700 14.447800 -5.317800
					CHANNELS 3 Xrotation Yrotation Zrotation
					JOINT Hood1
					{
						OFFSET 0.001700 -5.553802 -5.895100
						CHANNELS 3 Xrotation Yrotation Zrotation
						JOINT Hood2
						{
							OFFSET -0.000200 -8.380501 0.763600
							CHANNELS 3 Xrotation Yrotation Zrotation
							End Site
							{
								OFFSET 0.000000 8.415215 0.000000
							}
						}
					}
				}
				JOINT Left_Breast
				{
					OFFSET 5.682500 3.120102 3.188800
					CHANNELS 3 Xrotation Yrotation Zrotation
					End Site
					{
						OFFSET 0.000000 10.528564 0.000000
					}
				}
				JOINT Right_Breast
				{
					OFFSET -4.947600 3.120102 3.185900
					CHANNELS 3 Xrotation Yrotation Zrotation
					End Site
					{
						OFFSET 0.000000 10.528564 0.000000
					}
				}
				JOINT Whistle
				{
					OFFSET 0.368200 11.471298 0.095400
					CHANNELS 3 Xrotation Yrotation Zrotation
					JOINT Whistle1
					{
						OFFSET -0.002000 -6.349899 7.479800
						CHANNELS 3 Xrotation Yrotation Zrotation
						JOINT Whistle2
						{
							OFFSET -0.001300 -8.217598 4.717600
							CHANNELS 3 Xrotation Yrotation Zrotation
							End Site
							{
								OFFSET 0.000000 9.475479 0.000000
							}
						}
					}
				}
			}
		}
		JOINT Belly
		{
			OFFSET 0.212400 1.593002 3.163700
			CHANNELS 3 Xrotation Yrotation Zrotation
			End Site
			{
				OFFSET 0.000000 7.496635 0.000000
			}
		}
	}
	JOINT FitGrandmaFacialAnim_Joint
	{
		OFFSET 1.150000 -86.211197 -1.220100
		CHANNELS 3 Xrotation Yrotation Zrotation
		End Site
		{
			OFFSET 0.000000 31.666618 0.000000
		}
	}
}
MOTION
Frames: 4
Frame Time: 0.016667
11.217189 11.628105 -14.784866 -115.297172 73.305381 33.062569 -0.000000 -0.000001 0.000000 -89.787153 5.910091 -2.432682 89.774927 3.447555 -0.504306 -2.338604 0.256830 0.150014 0.000000 0.000000 -0.000000 -0.000000 -0.000001 -0.000000 -0.000000 -0.000000 0.000001 -30.272850 1.922197 10.780872 86.551078 -11.088281 -3.854493 29.114071 -1.870304 7.335294 0.000002 -0.000000 0.000003 -0.000001 -0.000000 0.000001 -0.000004 0.000000 -0.000001 15.394143 -10.491564 -6.499732 10.269410 -4.988677 -4.175172 10.075511 -5.450799 -4.055231 -3.272616 7.228370 -14.282615 -28.199346 11.664171 -14.767934 0.000000 0.000000 0.000001 0.000000 0.000000 0.000001 0.000000 0.000000 0.000001 0.000000 0.000000 0.000001 0.000000 0.000000 0.000001 0.000000 0.000000 0.000001 0.000000 0.000000 0.000001 0.000000 0.000000 0.000001 0.000000 0.000000 0.000001 0.000000 0.000000 0.000001 0.000000 0.000000 0.000001 0.000000 0.000000 0.000001 0.000000 0.000000 0.000001 0.000000 0.000000 0.000001 0.000000 0.000000 0.000001 0.000000 0.000000 0.000001 0.000000 0.000000 0.000001 0.000000 0.000000 0.000001 0.000000 0.000000 0.000001 4.010588 -4.908951 30.425935 -98.272174 29.592959 -48.772264 -0.000006 -29.022082 -0.000001 0.131382 16.629451 8.536184 -1.540031 3.690186 6.142351 3.939049 7.948721 0.746815 -0.000000 0.000002 -0.000000 0.000001 -0.000003 0.000004 -0.000004 0.000010 -0.000015 0.000001 0.000001 0.000003 0.000001 -0.001929 0.015984 -0.000005 0.001936 -0.016010 -0.000001 -0.000000 -0.000001 0.000001 -0.000003 0.000009 0.000003 0.000011 -0.000021 0.000001 0.000002 -0.000003 -0.018092 4.054253 0.511071 -0.018089 -4.054249 -0.511086 0.000002 -0.000001 0.000001 0.000000 0.000000 0.000000 5.201619 10.649079 -16.868035 -39.319517 45.122788 97.301236 -0.000151 102.936511 0.000146 5.604807 -5.065550 40.880782 -1.849254 -3.581785 -6.586160 4.637192 -8.634130 -0.225421 0.000001 0.000002 0.000001 0.000003 -0.000004 -0.000010 -0.000003 0.000003 0.000017 0.000000 -0.000001 -0.000001 0.000005 0.000002 0.000001 -0.000004 0.000004 0.000035 -0.000003 0.000000 -0.000004 0.000004 -0.000000 -0.000012 -0.000002 0.000002 0.000014 0.000001 -0.000002 0.000001 0.000007 -0.000002 -0.000000 -0.000006 0.000003 0.000027 0.000002 -0.000000 0.000002 -0.000000 0.000000 0.000004 0.000002 0.000001 -0.000001 0.000002 0.000001 -0.000001 0.000002 0.000001 -0.000001 0.000002 0.000001 -0.000001 0.000002 0.000001 -0.000001 0.000002 0.000001 -0.000001 0.000002 0.000000 -0.000001 0.000002 0.000000 -0.000001 0.000000 -0.000001 0.000000 -0.000000 -0.000001 0.000000 
11.228742 11.626755 -14.775047 -115.267174 73.224914 33.004379 -0.000000 -0.000002 0.000000 -89.609691 5.853043 -2.318272 89.905275 2.950486 -0.576060 -3.365797 0.261780 0.008746 -0.000001 0.000000 -0.000000 0.000001 0.000000 -0.000000 -0.000001 -0.000000 0.000003 -30.234232 1.900047 10.790988 86.562013 -11.102402 -3.864584 29.091896 -1.836368 7.252090 0.000001 -0.000001 0.000000 -0.000000 0.000001 0.000000 -0.000001 -0.000001 0.000001 15.340866 -10.469629 -6.435793 10.226787 -5.010038 -4.150912 10.032174 -5.472365 -4.029278 -3.171004 7.239968 -14.352367 -28.146074 11.710051 -14.821596 -0.000000 0.000001 0.000005 -0.000000 0.000001 0.000005 -0.000000 0.000001 0.000005 -0.000000 0.000001 0.000005 -0.000000 0.000001 0.000005 -0.000000 0.000001 0.000005 -0.000000 0.000001 0.000005 -0.000000 0.000001 0.000005 -0.000000 0.000001 0.000005 -0.000000 0.000001 0.000005 -0.000000 0.000001 0.000005 -0.000000 0.000001 0.000005 -0.000000 0.000001 0.000005 -0.000000 0.000001 0.000005 -0.000000 0.000001 0.000005 -0.000000 0.000001 0.000005 -0.000000 0.000001 0.000005 -0.000000 0.000001 0.000005 -0.000000 0.000001 0.000005 4.063083 -4.848792 30.216743 -98.229411 29.536159 -48.772830 -0.000007 -28.953104 -0.000002 0.230762 16.505012 8.705511 -1.540039 3.690189 6.142357 3.939052 7.948703 0.746809 -0.000001 -0.000000 0.000001 0.000003 0.000003 0.000010 -0.000005 0.000009 -0.000015 0.000001 0.000001 -0.000001 0.000000 -0.001924 0.015994 -0.000004 0.001929 -0.016001 0.000001 0.000000 -0.000001 0.000001 0.000002 0.000011 -0.000001 0.000003 -0.000019 0.000001 0.000000 -0.000001 -0.018096 4.054253 0.511077 -0.018101 -4.054248 -0.511079 0.000000 0.000000 -0.000000 -0.000001 0.000000 0.000000 5.188632 10.588825 -17.043098 -39.537773 45.274192 97.619789 -0.000464 102.793848 0.000451 6.308714 -5.800627 39.941307 -1.849248 -3.581790 -6.586135 4.637191 -8.634128 -0.225403 0.000000 0.000001 0.000001 0.000000 0.000002 -0.000002 -0.000000 -0.000003 0.000053 -0.000003 0.000002 -0.000002 0.000002 0.000004 -0.000005 0.000002 -0.000004 0.000015 -0.000001 -0.000000 0.000000 0.000002 0.000003 -0.000006 0.000003 -0.000005 0.000018 0.000001 -0.000000 0.000001 0.000006 -0.000000 -0.000010 0.000004 -0.000002 0.000025 -0.000003 -0.000002 0.000001 -0.000001 0.000000 0.000003 0.000003 -0.000002 -0.000001 0.000003 -0.000002 -0.000001 0.000003 -0.000002 -0.000001 0.000003 -0.000002 -0.000001 0.000003 -0.000002 -0.000001 0.000002 -0.000002 0.000000 -0.000001 -0.000002 0.000000 -0.000001 -0.000002 0.000000 0.000001 0.000001 -0.000000 -0.000000 -0.000002 0.000000 
11.240991 11.627991 -14.765709 -115.246246 73.146873 32.954047 0.000000 0.000000 -0.000000 -89.433712 5.792175 -2.201123 90.032009 2.468041 -0.647340 -4.349839 0.268070 -0.125491 0.000000 -0.000000 -0.000000 0.000001 0.000001 0.000000 0.000000 -0.000000 0.000001 -30.191205 1.872956 10.803681 86.571685 -11.104719 -3.875077 29.068595 -1.817905 7.175703 0.000001 0.000000 0.000001 -0.000000 0.000000 0.000000 -0.000000 -0.000000 -0.000001 15.289638 -10.449022 -6.371943 10.185748 -5.031183 -4.126520 9.990497 -5.493615 -4.003250 -3.062562 7.250388 -14.443432 -28.110467 11.751722 -14.847694 -0.000000 0.000000 0.000000 -0.000000 0.000000 0.000000 -0.000000 0.000000 0.000000 -0.000000 0.000000 0.000000 -0.000000 0.000000 0.000000 -0.000000 0.000000 0.000000 -0.000000 0.000000 0.000000 -0.000000 0.000000 0.000000 -0.000000 0.000000 0.000000 -0.000000 0.000000 0.000000 -0.000000 0.000000 0.000000 -0.000000 0.000000 0.000000 -0.000000 0.000000 0.000000 -0.000000 0.000000 0.000000 -0.000000 0.000000 0.000000 -0.000000 0.000000 0.000000 -0.000000 0.000000 0.000000 -0.000000 0.000000 0.000000 -0.000000 0.000000 0.000000 4.107885 -4.790343 29.995063 -98.160221 29.449518 -48.783530 -0.000005 -28.882992 -0.000001 0.431191 16.400606 8.843812 -1.540037 3.690188 6.142350 3.939051 7.948708 0.746811 -0.000001 0.000002 -0.000001 -0.000003 0.000002 0.000018 0.000002 0.000001 -0.000021 0.000003 -0.000000 -0.000001 -0.000008 -0.001929 0.015995 0.000002 0.001929 -0.016011 0.000000 -0.000000 -0.000001 -0.000004 0.000001 0.000017 -0.000004 0.000004 -0.000019 0.000001 0.000002 -0.000001 -0.018096 4.054249 0.511079 -0.018091 -4.054253 -0.511087 0.000002 -0.000001 0.000002 -0.000000 0.000000 0.000000 5.169974 10.526251 -17.181303 -39.744690 45.430009 97.916615 0.000168 102.663535 -0.000164 6.837461 -6.419672 39.016090 -1.849253 -3.581788 -6.586130 4.637195 -8.634133 -0.225401 0.000001 0.000001 0.000003 -0.000006 0.000004 0.000011 -0.000000 -0.000009 0.000014 -0.000001 -0.000001 -0.000001 -0.000001 0.000006 0.000009 0.000001 -0.000007 0.000029 -0.000000 -0.000000 0.000004 -0.000007 0.000009 0.000007 -0.000000 -0.000009 0.000022 0.000003 -0.000002 0.000002 -0.000004 0.000003 0.000015 -0.000010 -0.000006 0.000014 -0.000002 -0.000001 0.000003 -0.000001 -0.000000 -0.000000 0.000002 0.000002 -0.000000 0.000002 0.000002 -0.000000 0.000002 0.000002 -0.000000 0.000002 0.000002 -0.000000 0.000002 0.000002 -0.000000 0.000002 0.000002 0.000000 -0.000002 -0.000001 -0.000000 -0.000002 -0.000001 -0.000000 0.000000 -0.000002 0.000000 0.000000 0.000000 -0.000000 
11.253659 11.631271 -14.756165 -115.235318 73.072041 32.912298 0.000000 0.000001 0.000001 -89.260928 5.728252 -2.082776 90.153347 2.005509 -0.718241 -5.287283 0.275025 -0.247632 0.000001 0.000000 0.000000 0.000000 0.000001 -0.000000 0.000000 -0.000000 0.000003 -30.144750 1.841036 10.816792 86.580823 -11.106361 -3.884470 29.043706 -1.802353 7.099170 -0.000001 0.000000 -0.000001 -0.000001 0.000000 -0.000000 0.000004 0.000000 -0.000000 15.240575 -10.429035 -6.309698 10.146128 -5.051350 -4.102143 9.950376 -5.513611 -3.977270 -2.944880 7.257574 -14.552608 -28.093678 11.789459 -14.848538 -0.000000 -0.000000 0.000001 -0.000000 -0.000000 0.000001 -0.000000 -0.000000 0.000001 -0.000000 -0.000000 0.000001 -0.000000 -0.000000 0.000001 -0.000000 -0.000000 0.000001 -0.000000 -0.000000 0.000001 -0.000000 -0.000000 0.000001 -0.000000 -0.000000 0.000001 -0.000000 -0.000000 0.000001 -0.000000 -0.000000 0.000001 -0.000000 -0.000000 0.000001 -0.000000 -0.000000 0.000001 -0.000000 -0.000000 0.000001 -0.000000 -0.000000 0.000001 -0.000000 -0.000000 0.000001 -0.000000 -0.000000 0.000001 -0.000000 -0.000000 0.000001 -0.000000 -0.000000 0.000001 4.142338 -4.736910 29.766654 -98.061067 29.336226 -48.805503 -0.000003 -28.810158 -0.000001 0.727796 16.318189 8.949746 -1.540033 3.690186 6.142352 3.939052 7.948715 0.746810 -0.000000 0.000002 0.000000 -0.000002 0.000003 0.000015 0.000003 0.000002 -0.000020 0.000000 0.000000 -0.000001 -0.000000 -0.001933 0.015993 -0.000002 0.001929 -0.016008 0.000002 -0.000001 0.000000 0.000002 -0.000001 0.000017 0.000003 0.000004 -0.000017 -0.000000 -0.000000 -0.000002 -0.018094 4.054248 0.511077 -0.018087 -4.054247 -0.511083 0.000000 0.000000 0.000000 -0.000000 0.000000 -0.000000 5.149344 10.461792 -17.293236 -39.931584 45.580492 98.183758 0.000091 102.561690 -0.000089 7.264739 -6.997010 38.122786 -1.849254 -3.581789 -6.586158 4.637198 -8.634130 -0.225387 -0.000001 0.000002 -0.000002 -0.000000 0.000001 -0.000014 -0.000002 -0.000002 0.000042 -0.000002 0.000002 -0.000000 0.000002 0.000001 -0.000021 -0.000001 -0.000000 0.000034 -0.000001 -0.000001 -0.000002 -0.000000 0.000001 -0.000017 -0.000001 -0.000002 0.000029 -0.000000 -0.000000 -0.000001 0.000006 -0.000001 -0.000003 -0.000012 -0.000003 0.000003 -0.000003 -0.000001 0.000000 0.000000 -0.000001 -0.000002 -0.000001 0.000000 -0.000000 -0.000001 0.000000 -0.000000 -0.000001 0.000000 -0.000000 -0.000001 0.000000 -0.000000 -0.000001 0.000000 -0.000000 -0.000001 0.000000 0.000000 -0.000001 0.000000 0.000000 -0.000001 0.000000 0.000000 0.000001 0.000001 -0.000000 0.000000 0.000001 0.000001 
